{
	"asset":{
		"generator":"Khronos glTF Blender I/O v5.0.21",
		"version":"2.0"
	},
	"scene":0,
	"scenes":[
		{
			"name":"Scene",
			"nodes":[
				0,
				1,
				2,
				3,
				4,
				5,
				6,
				7,
				8,
				9
			]
		}
	],
	"nodes":[
		{
			"mesh":0,
			"name":"barrel",
			"rotation":[
				0.7071068286895752,
				0,
				0,
				0.7071068286895752
			],
			"scale":[
				-0.029960395768284798,
				-0.029960395768284798,
				-0.029960395768284798
			],
			"translation":[
				-0.05234446004033089,
				0.05465615540742874,
				0.7076661586761475
			]
		},
		{
			"mesh":1,
			"name":"PRE_BARREL",
			"rotation":[
				0.7071068286895752,
				0,
				0,
				0.7071068286895752
			],
			"scale":[
				-0.07460540533065796,
				-0.07460540533065796,
				-0.07460540533065796
			],
			"translation":[
				-0.05234446004033089,
				0.05465615540742874,
				-0.0010479092597961426
			]
		},
		{
			"mesh":2,
			"name":"magazine",
			"rotation":[
				-0.15368272364139557,
				0,
				0,
				0.9881202578544617
			],
			"scale":[
				0.04805490002036095,
				0.04805490002036095,
				0.04805490002036095
			],
			"translation":[
				-0.05234446004033089,
				-0.38119378685951233,
				0.10922181606292725
			]
		},
		{
			"mesh":3,
			"name":"slicencer",
			"rotation":[
				0.7071068286895752,
				0,
				0,
				0.7071068286895752
			],
			"scale":[
				-0.050529103726148605,
				-0.050529103726148605,
				-0.050529103726148605
			],
			"translation":[
				-0.05234446004033089,
				0.05465615540742874,
				1.231204628944397
			]
		},
		{
			"mesh":4,
			"name":"BODY",
			"scale":[
				0.07654673606157303,
				0.07654673606157303,
				0.07654673606157303
			],
			"translation":[
				-0.05234446004033089,
				0.04221689701080322,
				0.16291619837284088
			]
		},
		{
			"mesh":5,
			"name":"gip",
			"rotation":[
				0.19482110440731049,
				0,
				0,
				0.9808388948440552
			],
			"scale":[
				0.0600321963429451,
				0.0600321963429451,
				0.0600321963429451
			],
			"translation":[
				-0.05234446004033089,
				-0.3328516483306885,
				-0.3322761058807373
			]
		},
		{
			"mesh":6,
			"name":"Cube",
			"scale":[
				0.05207064747810364,
				0.05207064747810364,
				0.05207064747810364
			],
			"translation":[
				-0.05234446004033089,
				0.171550452709198,
				-0.22380828857421875
			]
		},
		{
			"mesh":7,
			"name":"Cube.001",
			"scale":[
				-0.018813639879226685,
				-0.018813639879226685,
				-0.018813639879226685
			],
			"translation":[
				-0.05234446004033089,
				0.12713530659675598,
				-0.2840576767921448
			]
		},
		{
			"mesh":8,
			"name":"Cube.002",
			"scale":[
				-0.01977425441145897,
				-0.008422511629760265,
				-0.01977425441145897
			],
			"translation":[
				-0.05234446004033089,
				-0.1793765127658844,
				-0.1389729082584381
			]
		},
		{
			"mesh":9,
			"name":"Cube.003",
			"scale":[
				0.030201448127627373,
				0.030201448127627373,
				0.030201448127627373
			],
			"translation":[
				-0.024123502895236015,
				0.11604515463113785,
				0.12846548855304718
			]
		}
	],
	"meshes":[
		{
			"name":"Cylinder.001",
			"primitives":[
				{
					"attributes":{
						"POSITION":0,
						"NORMAL":1,
						"TEXCOORD_0":2
					},
					"indices":3
				}
			]
		},
		{
			"name":"Cylinder.003",
			"primitives":[
				{
					"attributes":{
						"POSITION":4,
						"NORMAL":5,
						"TEXCOORD_0":6
					},
					"indices":7
				}
			]
		},
		{
			"name":"Cube.003",
			"primitives":[
				{
					"attributes":{
						"POSITION":8,
						"NORMAL":9,
						"TEXCOORD_0":10
					},
					"indices":11
				}
			]
		},
		{
			"name":"Cylinder.002",
			"primitives":[
				{
					"attributes":{
						"POSITION":12,
						"NORMAL":13,
						"TEXCOORD_0":14
					},
					"indices":15
				}
			]
		},
		{
			"name":"Cube.005",
			"primitives":[
				{
					"attributes":{
						"POSITION":16,
						"NORMAL":17,
						"TEXCOORD_0":18
					},
					"indices":19
				}
			]
		},
		{
			"name":"Cube.006",
			"primitives":[
				{
					"attributes":{
						"POSITION":20,
						"NORMAL":21,
						"TEXCOORD_0":22
					},
					"indices":23
				}
			]
		},
		{
			"name":"Cube.007",
			"primitives":[
				{
					"attributes":{
						"POSITION":24,
						"NORMAL":25,
						"TEXCOORD_0":26
					},
					"indices":27
				}
			]
		},
		{
			"name":"Cube.010",
			"primitives":[
				{
					"attributes":{
						"POSITION":28,
						"NORMAL":29,
						"TEXCOORD_0":30
					},
					"indices":31
				}
			]
		},
		{
			"name":"Cube.011",
			"primitives":[
				{
					"attributes":{
						"POSITION":32,
						"NORMAL":33,
						"TEXCOORD_0":34
					},
					"indices":35
				}
			]
		},
		{
			"name":"Cube.009",
			"primitives":[
				{
					"attributes":{
						"POSITION":36,
						"NORMAL":37,
						"TEXCOORD_0":38
					},
					"indices":39
				}
			]
		}
	],
	"accessors":[
		{
			"bufferView":0,
			"componentType":5126,
			"count":70,
			"max":[
				0.9749279022216797,
				1,
				1.0000005960464478
			],
			"min":[
				-0.9749279022216797,
				-15.646759033203125,
				-1
			],
			"type":"VEC3"
		},
		{
			"bufferView":1,
			"componentType":5126,
			"count":70,
			"type":"VEC3"
		},
		{
			"bufferView":2,
			"componentType":5126,
			"count":70,
			"type":"VEC2"
		},
		{
			"bufferView":3,
			"componentType":5123,
			"count":120,
			"type":"SCALAR"
		},
		{
			"bufferView":4,
			"componentType":5126,
			"count":4099,
			"max":[
				1.3419228792190552,
				13.714813232421875,
				1.37643301486969
			],
			"min":[
				-1.3419228792190552,
				-9.42447566986084,
				-2.8025267124176025
			],
			"type":"VEC3"
		},
		{
			"bufferView":5,
			"componentType":5126,
			"count":4099,
			"type":"VEC3"
		},
		{
			"bufferView":6,
			"componentType":5126,
			"count":4099,
			"type":"VEC2"
		},
		{
			"bufferView":7,
			"componentType":5123,
			"count":6411,
			"type":"SCALAR"
		},
		{
			"bufferView":8,
			"componentType":5126,
			"count":600,
			"max":[
				0.6731836199760437,
				4.659656524658203,
				2.9397499561309814
			],
			"min":[
				-0.6731836199760437,
				-1.196425199508667,
				-1.1912866830825806
			],
			"type":"VEC3"
		},
		{
			"bufferView":9,
			"componentType":5126,
			"count":600,
			"type":"VEC3"
		},
		{
			"bufferView":10,
			"componentType":5126,
			"count":600,
			"type":"VEC2"
		},
		{
			"bufferView":11,
			"componentType":5123,
			"count":996,
			"type":"SCALAR"
		},
		{
			"bufferView":12,
			"componentType":5126,
			"count":84,
			"max":[
				0.9749279022216797,
				1,
				1.0000003576278687
			],
			"min":[
				-0.9749279022216797,
				-9.89856243133545,
				-1
			],
			"type":"VEC3"
		},
		{
			"bufferView":13,
			"componentType":5126,
			"count":84,
			"type":"VEC3"
		},
		{
			"bufferView":14,
			"componentType":5126,
			"count":84,
			"type":"VEC2"
		},
		{
			"bufferView":15,
			"componentType":5123,
			"count":156,
			"type":"SCALAR"
		},
		{
			"bufferView":16,
			"componentType":5126,
			"count":411,
			"max":[
				0.4962402284145355,
				-0.24353229999542236,
				0.5710636377334595
			],
			"min":[
				-0.49685052037239075,
				-2.9336204528808594,
				-7.211409568786621
			],
			"type":"VEC3"
		},
		{
			"bufferView":17,
			"componentType":5126,
			"count":411,
			"type":"VEC3"
		},
		{
			"bufferView":18,
			"componentType":5126,
			"count":411,
			"type":"VEC2"
		},
		{
			"bufferView":19,
			"componentType":5123,
			"count":717,
			"type":"SCALAR"
		},
		{
			"bufferView":20,
			"componentType":5126,
			"count":458,
			"max":[
				0.48248767852783203,
				4.8090009689331055,
				1.8668997287750244
			],
			"min":[
				-0.511763334274292,
				-0.9325280785560608,
				-1
			],
			"type":"VEC3"
		},
		{
			"bufferView":21,
			"componentType":5126,
			"count":458,
			"type":"VEC3"
		},
		{
			"bufferView":22,
			"componentType":5126,
			"count":458,
			"type":"VEC2"
		},
		{
			"bufferView":23,
			"componentType":5123,
			"count":720,
			"type":"SCALAR"
		},
		{
			"bufferView":24,
			"componentType":5126,
			"count":188,
			"max":[
				0.3941144049167633,
				1.4844295978546143,
				8.93433952331543
			],
			"min":[
				-0.39612874388694763,
				-1.6373404264450073,
				-7.901057720184326
			],
			"type":"VEC3"
		},
		{
			"bufferView":25,
			"componentType":5126,
			"count":188,
			"type":"VEC3"
		},
		{
			"bufferView":26,
			"componentType":5126,
			"count":188,
			"type":"VEC2"
		},
		{
			"bufferView":27,
			"componentType":5123,
			"count":342,
			"type":"SCALAR"
		},
		{
			"bufferView":28,
			"componentType":5126,
			"count":96,
			"max":[
				4.031210899353027,
				1,
				0.8201858401298523
			],
			"min":[
				-4.031209468841553,
				0.5339851379394531,
				-0.8201844096183777
			],
			"type":"VEC3"
		},
		{
			"bufferView":29,
			"componentType":5126,
			"count":96,
			"type":"VEC3"
		},
		{
			"bufferView":30,
			"componentType":5126,
			"count":96,
			"type":"VEC2"
		},
		{
			"bufferView":31,
			"componentType":5123,
			"count":180,
			"type":"SCALAR"
		},
		{
			"bufferView":32,
			"componentType":5126,
			"count":126,
			"max":[
				0.9999997615814209,
				0.5520146489143372,
				0.6225036382675171
			],
			"min":[
				-0.9999998807907104,
				-9.905937194824219,
				-6.7692461013793945
			],
			"type":"VEC3"
		},
		{
			"bufferView":33,
			"componentType":5126,
			"count":126,
			"type":"VEC3"
		},
		{
			"bufferView":34,
			"componentType":5126,
			"count":126,
			"type":"VEC2"
		},
		{
			"bufferView":35,
			"componentType":5123,
			"count":243,
			"type":"SCALAR"
		},
		{
			"bufferView":36,
			"componentType":5126,
			"count":48,
			"max":[
				0.5395158529281616,
				0.04271167516708374,
				1
			],
			"min":[
				-0.5395172834396362,
				-1,
				-1
			],
			"type":"VEC3"
		},
		{
			"bufferView":37,
			"componentType":5126,
			"count":48,
			"type":"VEC3"
		},
		{
			"bufferView":38,
			"componentType":5126,
			"count":48,
			"type":"VEC2"
		},
		{
			"bufferView":39,
			"componentType":5123,
			"count":84,
			"type":"SCALAR"
		}
	],
	"bufferViews":[
		{
			"buffer":0,
			"byteLength":840,
			"byteOffset":0,
			"target":34962
		},
		{
			"buffer":0,
			"byteLength":840,
			"byteOffset":840,
			"target":34962
		},
		{
			"buffer":0,
			"byteLength":560,
			"byteOffset":1680,
			"target":34962
		},
		{
			"buffer":0,
			"byteLength":240,
			"byteOffset":2240,
			"target":34963
		},
		{
			"buffer":0,
			"byteLength":49188,
			"byteOffset":2480,
			"target":34962
		},
		{
			"buffer":0,
			"byteLength":49188,
			"byteOffset":51668,
			"target":34962
		},
		{
			"buffer":0,
			"byteLength":32792,
			"byteOffset":100856,
			"target":34962
		},
		{
			"buffer":0,
			"byteLength":12822,
			"byteOffset":133648,
			"target":34963
		},
		{
			"buffer":0,
			"byteLength":7200,
			"byteOffset":146472,
			"target":34962
		},
		{
			"buffer":0,
			"byteLength":7200,
			"byteOffset":153672,
			"target":34962
		},
		{
			"buffer":0,
			"byteLength":4800,
			"byteOffset":160872,
			"target":34962
		},
		{
			"buffer":0,
			"byteLength":1992,
			"byteOffset":165672,
			"target":34963
		},
		{
			"buffer":0,
			"byteLength":1008,
			"byteOffset":167664,
			"target":34962
		},
		{
			"buffer":0,
			"byteLength":1008,
			"byteOffset":168672,
			"target":34962
		},
		{
			"buffer":0,
			"byteLength":672,
			"byteOffset":169680,
			"target":34962
		},
		{
			"buffer":0,
			"byteLength":312,
			"byteOffset":170352,
			"target":34963
		},
		{
			"buffer":0,
			"byteLength":4932,
			"byteOffset":170664,
			"target":34962
		},
		{
			"buffer":0,
			"byteLength":4932,
			"byteOffset":175596,
			"target":34962
		},
		{
			"buffer":0,
			"byteLength":3288,
			"byteOffset":180528,
			"target":34962
		},
		{
			"buffer":0,
			"byteLength":1434,
			"byteOffset":183816,
			"target":34963
		},
		{
			"buffer":0,
			"byteLength":5496,
			"byteOffset":185252,
			"target":34962
		},
		{
			"buffer":0,
			"byteLength":5496,
			"byteOffset":190748,
			"target":34962
		},
		{
			"buffer":0,
			"byteLength":3664,
			"byteOffset":196244,
			"target":34962
		},
		{
			"buffer":0,
			"byteLength":1440,
			"byteOffset":199908,
			"target":34963
		},
		{
			"buffer":0,
			"byteLength":2256,
			"byteOffset":201348,
			"target":34962
		},
		{
			"buffer":0,
			"byteLength":2256,
			"byteOffset":203604,
			"target":34962
		},
		{
			"buffer":0,
			"byteLength":1504,
			"byteOffset":205860,
			"target":34962
		},
		{
			"buffer":0,
			"byteLength":684,
			"byteOffset":207364,
			"target":34963
		},
		{
			"buffer":0,
			"byteLength":1152,
			"byteOffset":208048,
			"target":34962
		},
		{
			"buffer":0,
			"byteLength":1152,
			"byteOffset":209200,
			"target":34962
		},
		{
			"buffer":0,
			"byteLength":768,
			"byteOffset":210352,
			"target":34962
		},
		{
			"buffer":0,
			"byteLength":360,
			"byteOffset":211120,
			"target":34963
		},
		{
			"buffer":0,
			"byteLength":1512,
			"byteOffset":211480,
			"target":34962
		},
		{
			"buffer":0,
			"byteLength":1512,
			"byteOffset":212992,
			"target":34962
		},
		{
			"buffer":0,
			"byteLength":1008,
			"byteOffset":214504,
			"target":34962
		},
		{
			"buffer":0,
			"byteLength":486,
			"byteOffset":215512,
			"target":34963
		},
		{
			"buffer":0,
			"byteLength":576,
			"byteOffset":216000,
			"target":34962
		},
		{
			"buffer":0,
			"byteLength":576,
			"byteOffset":216576,
			"target":34962
		},
		{
			"buffer":0,
			"byteLength":384,
			"byteOffset":217152,
			"target":34962
		},
		{
			"buffer":0,
			"byteLength":168,
			"byteOffset":217536,
			"target":34963
		}
	],
	"buffers":[
		{
			"byteLength":217704,
			"uri":"m4a1.bin"
		}
	]
}
